<?xml version="1.0" encoding="UTF-8" standalone="no"?>
<!-- Created with Inkscape (http://www.inkscape.org/) -->

<svg
   xmlns:dc="http://purl.org/dc/elements/1.1/"
   xmlns:cc="http://creativecommons.org/ns#"
   xmlns:rdf="http://www.w3.org/1999/02/22-rdf-syntax-ns#"
   xmlns:svg="http://www.w3.org/2000/svg"
   xmlns="http://www.w3.org/2000/svg"
   xmlns:sodipodi="http://sodipodi.sourceforge.net/DTD/sodipodi-0.dtd"
   xmlns:inkscape="http://www.inkscape.org/namespaces/inkscape"
   version="1.1"
   width="55"
   height="55"
   viewBox="0 0 55 55"
   id="svg2"
   xml:space="preserve"
   inkscape:version="0.48.3.1 r9886"
   sodipodi:docname="WeDooff.svg"><sodipodi:namedview
     pagecolor="#ffffff"
     bordercolor="#666666"
     borderopacity="1"
     objecttolerance="10"
     gridtolerance="10"
     guidetolerance="10"
     inkscape:pageopacity="0"
     inkscape:pageshadow="2"
     inkscape:window-width="1366"
     inkscape:window-height="744"
     id="namedview10"
     showgrid="false"
     inkscape:zoom="4.2909091"
     inkscape:cx="27.5"
     inkscape:cy="27.5"
     inkscape:window-x="0"
     inkscape:window-y="24"
     inkscape:window-maximized="1"
     inkscape:current-layer="svg2" /><metadata
     id="metadata15"><rdf:RDF><cc:Work
         rdf:about=""><dc:format>image/svg+xml</dc:format><dc:type
           rdf:resource="http://purl.org/dc/dcmitype/StillImage" /><dc:title /></cc:Work></rdf:RDF></metadata><defs
     id="defs13"><inkscape:perspective
   sodipodi:type="inkscape:persp3d"
   inkscape:vp_x="0 : 27.5 : 1"
   inkscape:vp_y="0 : 1000 : 0"
   inkscape:vp_z="55 : 27.5 : 1"
   inkscape:persp3d-origin="27.5 : 18.333333 : 1"
   id="perspective12" />
	

		
		
	</defs><rect
     width="45"
     height="45"
     x="5"
     y="5"
     id="rect3269"
     style="fill:#282828;fill-opacity:1;fill-rule:nonzero;stroke:none" /><path
     d="m 11.421095,15.380686 c 0,2.0569 1.66964,3.72654 3.72654,3.72654 2.05489,0 3.72453,-1.66964 3.72453,-3.72654 0,-2.05489 -1.66897,-3.72788 -3.72453,-3.72788 -2.0569,0 -3.72654,1.67299 -3.72654,3.72788 z"
     id="path7"
     style="fill:#ffffff;fill-opacity:1" /><path
     style="fill:#ffffff;fill-opacity:1"
     id="path2823"
     d="m 35.421095,15.380686 c 0,2.0569 1.66964,3.72654 3.72654,3.72654 2.05489,0 3.72453,-1.66964 3.72453,-3.72654 0,-2.05489 -1.66897,-3.72788 -3.72453,-3.72788 -2.0569,0 -3.72654,1.67299 -3.72654,3.72788 z" /><path
     d="m 35.421095,39.380686 c 0,2.0569 1.66964,3.72654 3.72654,3.72654 2.05489,0 3.72453,-1.66964 3.72453,-3.72654 0,-2.05489 -1.66897,-3.72788 -3.72453,-3.72788 -2.0569,0 -3.72654,1.67299 -3.72654,3.72788 z"
     id="path2825"
     style="fill:#ffffff;fill-opacity:1" /><path
     style="fill:#ffffff;fill-opacity:1"
     id="path2827"
     d="m 11.421095,39.380686 c 0,2.0569 1.66964,3.72654 3.72654,3.72654 2.05489,0 3.72453,-1.66964 3.72453,-3.72654 0,-2.05489 -1.66897,-3.72788 -3.72453,-3.72788 -2.0569,0 -3.72654,1.67299 -3.72654,3.72788 z" /></svg>